<svg version="1.1" viewBox="0.0 0.0 547.0708661417323 593.9816272965879" fill="none" stroke="none" stroke-linecap="square" stroke-miterlimit="10" xmlns:xlink="http://www.w3.org/1999/xlink" xmlns="http://www.w3.org/2000/svg"><clipPath id="p.0"><path d="m0 0l547.07086 0l0 593.9816l-547.07086 0l0 -593.9816z" clip-rule="nonzero"/></clipPath><g clip-path="url(#p.0)"><path fill="#000000" fill-opacity="0.0" d="m0 0l547.07086 0l0 593.9816l-547.07086 0z" fill-rule="evenodd"/><path fill="#000000" fill-opacity="0.0" d="m112.2126 185.2559l0 0c0 -40.12979 32.531616 -72.661415 72.66141 -72.661415l0 0c19.271011 0 37.75273 7.6553726 51.379395 21.282036c13.626648 13.626663 21.282028 32.108368 21.282028 51.37938l0 0c0 40.12979 -32.531616 72.66142 -72.66142 72.66142l0 0c-40.12979 0 -72.66141 -32.53163 -72.66141 -72.66142z" fill-rule="evenodd"/><path stroke="#000000" stroke-width="4.0" stroke-linejoin="round" stroke-linecap="butt" d="m112.2126 185.2559l0 0c0 -40.12979 32.531616 -72.661415 72.66141 -72.661415l0 0c19.271011 0 37.75273 7.6553726 51.379395 21.282036c13.626648 13.626663 21.282028 32.108368 21.282028 51.37938l0 0c0 40.12979 -32.531616 72.66142 -72.66142 72.66142l0 0c-40.12979 0 -72.66141 -32.53163 -72.66141 -72.66142z" fill-rule="evenodd"/><path fill="#000000" d="m155.78807 196.9759l-6.078125 -22.90625l3.109375 0l3.484375 15.015625q0.5625 2.359375 0.96875 4.6875q0.875 -3.671875 1.03125 -4.234375l4.359375 -15.46875l3.65625 0l3.28125 11.59375q1.234375 4.3125 1.78125 8.109375q0.4375 -2.171875 1.140625 -4.984375l3.59375 -14.71875l3.046875 0l-6.28125 22.90625l-2.921875 0l-4.828125 -17.453125q-0.609375 -2.1875 -0.71875 -2.6875q-0.359375 1.578125 -0.671875 2.6875l-4.859375 17.453125l-3.09375 0zm26.25 0l0 -22.90625l10.15625 0q3.0625 0 4.65625 0.625q1.59375 0.609375 2.546875 2.171875q0.953125 1.5625 0.953125 3.453125q0 2.4375 -1.578125 4.109375q-1.578125 1.671875 -4.875 2.125q1.203125 0.578125 1.828125 1.140625q1.328125 1.21875 2.515625 3.046875l3.984375 6.234375l-3.8125 0l-3.03125 -4.765625q-1.328125 -2.0625 -2.1875 -3.15625q-0.859375 -1.09375 -1.546875 -1.53125q-0.671875 -0.4375 -1.375 -0.609375q-0.515625 -0.109375 -1.6875 -0.109375l-3.515625 0l0 10.171875l-3.03125 0zm3.03125 -12.796875l6.515625 0q2.078125 0 3.25 -0.421875q1.171875 -0.4375 1.78125 -1.375q0.609375 -0.953125 0.609375 -2.0625q0 -1.625 -1.1875 -2.671875q-1.171875 -1.046875 -3.71875 -1.046875l-7.25 0l0 7.578125zm33.671875 10.09375l0 2.703125l-15.140625 0q-0.03125 -1.015625 0.328125 -1.953125q0.578125 -1.546875 1.84375 -3.046875q1.28125 -1.5 3.6875 -3.46875q3.734375 -3.0625 5.046875 -4.84375q1.3125 -1.796875 1.3125 -3.390625q0 -1.671875 -1.203125 -2.8125q-1.1875 -1.15625 -3.109375 -1.15625q-2.03125 0 -3.25 1.21875q-1.21875 1.21875 -1.234375 3.375l-2.890625 -0.296875q0.296875 -3.234375 2.234375 -4.921875q1.9375 -1.703125 5.203125 -1.703125q3.296875 0 5.21875 1.828125q1.921875 1.828125 1.921875 4.53125q0 1.375 -0.5625 2.703125q-0.5625 1.328125 -1.875 2.796875q-1.296875 1.46875 -4.328125 4.03125q-2.53125 2.125 -3.25 2.890625q-0.71875 0.75 -1.1875 1.515625l11.234375 0z" fill-rule="nonzero"/><path fill="#000000" fill-opacity="0.0" d="m289.53543 362.58005l0 0c0 -40.12979 32.531616 -72.66141 72.66141 -72.66141l0 0c19.271027 0 37.752747 7.655365 51.379395 21.282043c13.626648 13.626648 21.282043 32.108368 21.282043 51.379364l0 0c0 40.12979 -32.531647 72.66141 -72.66144 72.66141l0 0c-40.12979 0 -72.66141 -32.531616 -72.66141 -72.66141z" fill-rule="evenodd"/><path stroke="#000000" stroke-width="4.0" stroke-linejoin="round" stroke-linecap="butt" d="m289.53543 362.58005l0 0c0 -40.12979 32.531616 -72.66141 72.66141 -72.66141l0 0c19.271027 0 37.752747 7.655365 51.379395 21.282043c13.626648 13.626648 21.282043 32.108368 21.282043 51.379364l0 0c0 40.12979 -32.531647 72.66141 -72.66144 72.66141l0 0c-40.12979 0 -72.66141 -32.531616 -72.66141 -72.66141z" fill-rule="evenodd"/><path fill="#000000" d="m340.26715 374.30005l0 -20.203125l-7.546875 0l0 -2.703125l18.15625 0l0 2.703125l-7.578125 0l0 20.203125l-3.03125 0zm13.8125 0l0 -22.90625l3.03125 0l0 9.40625l11.90625 0l0 -9.40625l3.03125 0l0 22.90625l-3.03125 0l0 -10.796875l-11.90625 0l0 10.796875l-3.03125 0zm30.890625 0l0 -5.484375l-9.9375 0l0 -2.578125l10.453125 -14.84375l2.296875 0l0 14.84375l3.09375 0l0 2.578125l-3.09375 0l0 5.484375l-2.8125 0zm0 -8.0625l0 -10.328125l-7.171875 10.328125l7.171875 0z" fill-rule="nonzero"/><path fill="#000000" fill-opacity="0.0" d="m112.2126 362.58005l0 0c0 -40.12979 32.531616 -72.66141 72.66141 -72.66141l0 0c19.271011 0 37.75273 7.655365 51.379395 21.282043c13.626648 13.626648 21.282028 32.108368 21.282028 51.379364l0 0c0 40.12979 -32.531616 72.66141 -72.66142 72.66141l0 0c-40.12979 0 -72.66141 -32.531616 -72.66141 -72.66141z" fill-rule="evenodd"/><path stroke="#000000" stroke-width="4.0" stroke-linejoin="round" stroke-linecap="butt" d="m112.2126 362.58005l0 0c0 -40.12979 32.531616 -72.66141 72.66141 -72.66141l0 0c19.271011 0 37.75273 7.655365 51.379395 21.282043c13.626648 13.626648 21.282028 32.108368 21.282028 51.379364l0 0c0 40.12979 -32.531616 72.66141 -72.66142 72.66141l0 0c-40.12979 0 -72.66141 -32.531616 -72.66141 -72.66141z" fill-rule="evenodd"/><path fill="#000000" d="m162.94432 374.30005l0 -20.203125l-7.546875 0l0 -2.703125l18.15625 0l0 2.703125l-7.578125 0l0 20.203125l-3.03125 0zm13.8125 0l0 -22.90625l3.03125 0l0 9.40625l11.90625 0l0 -9.40625l3.03125 0l0 22.90625l-3.03125 0l0 -10.796875l-11.90625 0l0 10.796875l-3.03125 0zm21.875 -6.0l2.953125 -0.25q0.328125 2.15625 1.515625 3.25q1.203125 1.078125 2.890625 1.078125q2.03125 0 3.4375 -1.53125q1.40625 -1.53125 1.40625 -4.0625q0 -2.40625 -1.359375 -3.796875q-1.34375 -1.390625 -3.53125 -1.390625q-1.359375 0 -2.453125 0.625q-1.09375 0.609375 -1.71875 1.59375l-2.640625 -0.34375l2.21875 -11.765625l11.390625 0l0 2.6875l-9.140625 0l-1.234375 6.15625q2.0625 -1.4375 4.328125 -1.4375q3.0 0 5.0625 2.078125q2.0625 2.078125 2.0625 5.34375q0 3.109375 -1.8125 5.375q-2.203125 2.78125 -6.015625 2.78125q-3.125 0 -5.109375 -1.75q-1.96875 -1.75 -2.25 -4.640625z" fill-rule="nonzero"/><path fill="#000000" fill-opacity="0.0" d="m289.53543 185.2559l0 0c0 -40.12979 32.531616 -72.661415 72.66141 -72.661415l0 0c19.271027 0 37.752747 7.6553726 51.379395 21.282036c13.626648 13.626663 21.282043 32.108368 21.282043 51.37938l0 0c0 40.12979 -32.531647 72.66142 -72.66144 72.66142l0 0c-40.12979 0 -72.66141 -32.53163 -72.66141 -72.66142z" fill-rule="evenodd"/><path stroke="#000000" stroke-width="4.0" stroke-linejoin="round" stroke-linecap="butt" d="m289.53543 185.2559l0 0c0 -40.12979 32.531616 -72.661415 72.66141 -72.661415l0 0c19.271027 0 37.752747 7.6553726 51.379395 21.282036c13.626648 13.626663 21.282043 32.108368 21.282043 51.37938l0 0c0 40.12979 -32.531647 72.66142 -72.66144 72.66142l0 0c-40.12979 0 -72.66141 -32.53163 -72.66141 -72.66142z" fill-rule="evenodd"/><path fill="#000000" d="m333.1109 196.9759l-6.078125 -22.90625l3.109375 0l3.484375 15.015625q0.5625 2.359375 0.96875 4.6875q0.875 -3.671875 1.03125 -4.234375l4.359375 -15.46875l3.65625 0l3.28125 11.59375q1.234375 4.3125 1.78125 8.109375q0.4375 -2.171875 1.140625 -4.984375l3.59375 -14.71875l3.046875 0l-6.28125 22.90625l-2.921875 0l-4.828125 -17.453125q-0.609375 -2.1875 -0.71875 -2.6875q-0.359375 1.578125 -0.671875 2.6875l-4.859375 17.453125l-3.09375 0zm26.25 0l0 -22.90625l10.15625 0q3.0625 0 4.65625 0.625q1.59375 0.609375 2.546875 2.171875q0.953125 1.5625 0.953125 3.453125q0 2.4375 -1.578125 4.109375q-1.578125 1.671875 -4.875 2.125q1.203125 0.578125 1.828125 1.140625q1.328125 1.21875 2.515625 3.046875l3.984375 6.234375l-3.8125 0l-3.03125 -4.765625q-1.328125 -2.0625 -2.1875 -3.15625q-0.859375 -1.09375 -1.546875 -1.53125q-0.671875 -0.4375 -1.375 -0.609375q-0.515625 -0.109375 -1.6875 -0.109375l-3.515625 0l0 10.171875l-3.03125 0zm3.03125 -12.796875l6.515625 0q2.078125 0 3.25 -0.421875q1.171875 -0.4375 1.78125 -1.375q0.609375 -0.953125 0.609375 -2.0625q0 -1.625 -1.1875 -2.671875q-1.171875 -1.046875 -3.71875 -1.046875l-7.25 0l0 7.578125zm29.484375 12.796875l-2.8125 0l0 -17.921875q-1.015625 0.96875 -2.671875 1.9375q-1.640625 0.96875 -2.953125 1.453125l0 -2.71875q2.359375 -1.109375 4.125 -2.6875q1.765625 -1.578125 2.5 -3.0625l1.8125 0l0 23.0z" fill-rule="nonzero"/><path fill="#000000" fill-opacity="0.0" d="m83.92913 42.12336l0 0c0 -21.247742 17.2247 -38.472443 38.472443 -38.472443l0 0c10.203529 0 19.989143 4.053335 27.204124 11.268316c7.214981 7.214983 11.268311 17.000599 11.268311 27.204124l0 0c0 21.247742 -17.224686 38.472443 -38.472435 38.472443l0 0c-21.247742 0 -38.472443 -17.2247 -38.472443 -38.472443z" fill-rule="evenodd"/><path stroke="#000000" stroke-width="2.0" stroke-linejoin="round" stroke-linecap="butt" d="m83.92913 42.12336l0 0c0 -21.247742 17.2247 -38.472443 38.472443 -38.472443l0 0c10.203529 0 19.989143 4.053335 27.204124 11.268316c7.214981 7.214983 11.268311 17.000599 11.268311 27.204124l0 0c0 21.247742 -17.224686 38.472443 -38.472435 38.472443l0 0c-21.247742 0 -38.472443 -17.2247 -38.472443 -38.472443z" fill-rule="evenodd"/><path fill="#000000" d="m107.393135 48.26336l0 -12.40625l5.5 0q1.65625 0 2.515625 0.34375q0.875 0.328125 1.390625 1.171875q0.515625 0.84375 0.515625 1.875q0 1.3125 -0.859375 2.21875q-0.859375 0.90625 -2.640625 1.15625q0.65625 0.3125 1.0 0.609375q0.71875 0.671875 1.359375 1.65625l2.15625 3.375l-2.0625 0l-1.640625 -2.578125q-0.71875 -1.125 -1.1875 -1.703125q-0.46875 -0.59375 -0.84375 -0.828125q-0.359375 -0.25 -0.734375 -0.34375q-0.28125 -0.0625 -0.921875 -0.0625l-1.90625 0l0 5.515625l-1.640625 0zm1.640625 -6.921875l3.53125 0q1.125 0 1.75 -0.234375q0.640625 -0.234375 0.96875 -0.75q0.34375 -0.515625 0.34375 -1.109375q0 -0.890625 -0.640625 -1.453125q-0.640625 -0.5625 -2.03125 -0.5625l-3.921875 0l0 4.109375zm10.935699 6.921875l0 -12.40625l8.375008 0l0 1.46875l-6.7343826 0l0 3.84375l5.828125 0l0 1.453125l-5.828125 0l0 5.640625l-1.640625 0zm9.897224 -3.28125l1.515625 -0.203125q0.265625 1.296875 0.890625 1.875q0.640625 0.5625 1.53125 0.5625q1.078125 0 1.8125 -0.734375q0.75 -0.75 0.75 -1.84375q0 -1.046875 -0.6875 -1.734375q-0.6875 -0.6875 -1.734375 -0.6875q-0.4375 0 -1.078125 0.171875l0.171875 -1.328125q0.140625 0.015625 0.234375 0.015625q0.984375 0 1.75 -0.5q0.78125 -0.515625 0.78125 -1.578125q0 -0.84375 -0.5625 -1.390625q-0.5625 -0.546875 -1.46875 -0.546875q-0.890625 0 -1.484375 0.5625q-0.578125 0.5625 -0.75 1.671875l-1.53125 -0.265625q0.28125 -1.53125 1.265625 -2.375q1.0 -0.84375 2.46875 -0.84375q1.015625 0 1.859375 0.4375q0.859375 0.4375 1.3125 1.1875q0.453125 0.75 0.453125 1.59375q0 0.8125 -0.4375 1.46875q-0.421875 0.65625 -1.265625 1.046875q1.09375 0.25 1.703125 1.0625q0.609375 0.796875 0.609375 2.0q0 1.609375 -1.1875 2.75q-1.171875 1.125 -2.984375 1.125q-1.640625 0 -2.71875 -0.96875q-1.078125 -0.96875 -1.21875 -2.53125z" fill-rule="nonzero"/><path fill="#000000" fill-opacity="0.0" d="m184.68533 42.12336l0 0c0 -21.247742 17.2247 -38.472443 38.472443 -38.472443l0 0c10.203522 0 19.989136 4.053335 27.204117 11.268316c7.214981 7.214983 11.268326 17.000599 11.268326 27.204124l0 0c0 21.247742 -17.2247 38.472443 -38.472443 38.472443l0 0c-21.247742 0 -38.472443 -17.2247 -38.472443 -38.472443z" fill-rule="evenodd"/><path stroke="#000000" stroke-width="2.0" stroke-linejoin="round" stroke-linecap="butt" d="m184.68533 42.12336l0 0c0 -21.247742 17.2247 -38.472443 38.472443 -38.472443l0 0c10.203522 0 19.989136 4.053335 27.204117 11.268316c7.214981 7.214983 11.268326 17.000599 11.268326 27.204124l0 0c0 21.247742 -17.2247 38.472443 -38.472443 38.472443l0 0c-21.247742 0 -38.472443 -17.2247 -38.472443 -38.472443z" fill-rule="evenodd"/><path fill="#000000" d="m208.14934 48.26336l0 -12.40625l5.5 0q1.65625 0 2.515625 0.34375q0.875 0.328125 1.390625 1.171875q0.515625 0.84375 0.515625 1.875q0 1.3125 -0.859375 2.21875q-0.859375 0.90625 -2.640625 1.15625q0.65625 0.3125 1.0 0.609375q0.71875 0.671875 1.359375 1.65625l2.15625 3.375l-2.0625 0l-1.640625 -2.578125q-0.71875 -1.125 -1.1875 -1.703125q-0.46875 -0.59375 -0.84375 -0.828125q-0.359375 -0.25 -0.734375 -0.34375q-0.28125 -0.0625 -0.921875 -0.0625l-1.90625 0l0 5.515625l-1.640625 0zm1.640625 -6.921875l3.53125 0q1.125 0 1.75 -0.234375q0.640625 -0.234375 0.96875 -0.75q0.34375 -0.515625 0.34375 -1.109375q0 -0.890625 -0.640625 -1.453125q-0.640625 -0.5625 -2.03125 -0.5625l-3.921875 0l0 4.109375zm10.935699 6.921875l0 -12.40625l8.375 0l0 1.46875l-6.734375 0l0 3.84375l5.828125 0l0 1.453125l-5.828125 0l0 5.640625l-1.640625 0zm14.756592 0l0 -2.96875l-5.375 0l0 -1.390625l5.65625 -8.046875l1.25 0l0 8.046875l1.671875 0l0 1.390625l-1.671875 0l0 2.96875l-1.53125 0zm0 -4.359375l0 -5.59375l-3.875 5.59375l3.875 0z" fill-rule="nonzero"/><path fill="#000000" fill-opacity="0.0" d="m285.44153 42.12336l0 0c0 -21.247742 17.2247 -38.472443 38.472443 -38.472443l0 0c10.203522 0 19.989136 4.053335 27.204132 11.268316c7.214966 7.214983 11.268311 17.000599 11.268311 27.204124l0 0c0 21.247742 -17.2247 38.472443 -38.472443 38.472443l0 0c-21.247742 0 -38.472443 -17.2247 -38.472443 -38.472443z" fill-rule="evenodd"/><path stroke="#000000" stroke-width="2.0" stroke-linejoin="round" stroke-linecap="butt" d="m285.44153 42.12336l0 0c0 -21.247742 17.2247 -38.472443 38.472443 -38.472443l0 0c10.203522 0 19.989136 4.053335 27.204132 11.268316c7.214966 7.214983 11.268311 17.000599 11.268311 27.204124l0 0c0 21.247742 -17.2247 38.472443 -38.472443 38.472443l0 0c-21.247742 0 -38.472443 -17.2247 -38.472443 -38.472443z" fill-rule="evenodd"/><path fill="#000000" d="m312.04614 48.26336l0 -10.9375l-4.09375 0l0 -1.46875l9.828125 0l0 1.46875l-4.09375 0l0 10.9375l-1.640625 0zm7.475342 0l0 -12.40625l1.640625 0l0 5.09375l6.4375 0l0 -5.09375l1.65625 0l0 12.40625l-1.65625 0l0 -5.84375l-6.4375 0l0 5.84375l-1.640625 0zm11.857574 -3.28125l1.515625 -0.203125q0.265625 1.296875 0.890625 1.875q0.640625 0.5625 1.53125 0.5625q1.078125 0 1.8125 -0.734375q0.75 -0.75 0.75 -1.84375q0 -1.046875 -0.6875 -1.734375q-0.6875 -0.6875 -1.734375 -0.6875q-0.4375 0 -1.078125 0.171875l0.171875 -1.328125q0.140625 0.015625 0.234375 0.015625q0.984375 0 1.75 -0.5q0.78125 -0.515625 0.78125 -1.578125q0 -0.84375 -0.5625 -1.390625q-0.5625 -0.546875 -1.46875 -0.546875q-0.890625 0 -1.484375 0.5625q-0.578125 0.5625 -0.75 1.671875l-1.53125 -0.265625q0.28125 -1.53125 1.265625 -2.375q1.0 -0.84375 2.46875 -0.84375q1.015625 0 1.859375 0.4375q0.859375 0.4375 1.3125 1.1875q0.453125 0.75 0.453125 1.59375q0 0.8125 -0.4375 1.46875q-0.421875 0.65625 -1.265625 1.046875q1.09375 0.25 1.703125 1.0625q0.609375 0.796875 0.609375 2.0q0 1.609375 -1.1875 2.75q-1.171875 1.125 -2.984375 1.125q-1.640625 0 -2.71875 -0.96875q-1.078125 -0.96875 -1.21875 -2.53125z" fill-rule="nonzero"/><path fill="#000000" fill-opacity="0.0" d="m386.19772 42.12336l0 0c0 -21.247742 17.2247 -38.472443 38.472443 -38.472443l0 0c10.203522 0 19.989136 4.053335 27.204132 11.268316c7.214966 7.214983 11.268311 17.000599 11.268311 27.204124l0 0c0 21.247742 -17.2247 38.472443 -38.472443 38.472443l0 0c-21.247742 0 -38.472443 -17.2247 -38.472443 -38.472443z" fill-rule="evenodd"/><path stroke="#000000" stroke-width="2.0" stroke-linejoin="round" stroke-linecap="butt" d="m386.19772 42.12336l0 0c0 -21.247742 17.2247 -38.472443 38.472443 -38.472443l0 0c10.203522 0 19.989136 4.053335 27.204132 11.268316c7.214966 7.214983 11.268311 17.000599 11.268311 27.204124l0 0c0 21.247742 -17.2247 38.472443 -38.472443 38.472443l0 0c-21.247742 0 -38.472443 -17.2247 -38.472443 -38.472443z" fill-rule="evenodd"/><path fill="#000000" d="m412.80237 48.26336l0 -10.9375l-4.09375 0l0 -1.46875l9.828125 0l0 1.46875l-4.09375 0l0 10.9375l-1.640625 0zm7.475342 0l0 -12.40625l1.640625 0l0 5.09375l6.4375 0l0 -5.09375l1.65625 0l0 12.40625l-1.65625 0l0 -5.84375l-6.4375 0l0 5.84375l-1.640625 0zm17.576324 0l-1.515625 0l0 -9.703125q-0.5625 0.515625 -1.453125 1.046875q-0.890625 0.53125 -1.59375 0.78125l0 -1.46875q1.28125 -0.59375 2.234375 -1.453125q0.953125 -0.859375 1.34375 -1.65625l0.984375 0l0 12.453125z" fill-rule="nonzero"/><path fill="#000000" fill-opacity="0.0" d="m83.92913 505.7139l0 0c0 -21.247742 17.2247 -38.472443 38.472443 -38.472443l0 0c10.203529 0 19.989143 4.0533447 27.204124 11.268341c7.214981 7.214966 11.268311 17.00058 11.268311 27.204102l0 0c0 21.247772 -17.224686 38.472443 -38.472435 38.472443l0 0c-21.247742 0 -38.472443 -17.22467 -38.472443 -38.472443z" fill-rule="evenodd"/><path stroke="#000000" stroke-width="2.0" stroke-linejoin="round" stroke-linecap="butt" d="m83.92913 505.7139l0 0c0 -21.247742 17.2247 -38.472443 38.472443 -38.472443l0 0c10.203529 0 19.989143 4.0533447 27.204124 11.268341c7.214981 7.214966 11.268311 17.00058 11.268311 27.204102l0 0c0 21.247772 -17.224686 38.472443 -38.472435 38.472443l0 0c-21.247742 0 -38.472443 -17.22467 -38.472443 -38.472443z" fill-rule="evenodd"/><path fill="#000000" d="m106.35469 511.8539l0 -12.40625l2.46875 0l2.9375 8.78125q0.40625 1.234375 0.59375 1.84375q0.21875 -0.6875 0.65625 -2.0l2.984375 -8.625l2.203125 0l0 12.40625l-1.578125 0l0 -10.375l-3.609375 10.375l-1.484375 0l-3.578125 -10.5625l0 10.5625l-1.59375 0zm14.5750885 0l0 -12.40625l8.375 0l0 1.46875l-6.734375 0l0 3.84375l5.828125 0l0 1.453125l-5.828125 0l0 5.640625l-1.640625 0zm9.897217 -3.28125l1.515625 -0.203125q0.265625 1.296875 0.890625 1.875q0.640625 0.5625 1.53125 0.5625q1.078125 0 1.8125 -0.734375q0.75 -0.75 0.75 -1.84375q0 -1.046875 -0.6875 -1.734375q-0.6875 -0.6875 -1.734375 -0.6875q-0.4375 0 -1.078125 0.171875l0.171875 -1.328125q0.140625 0.015625 0.234375 0.015625q0.984375 0 1.75 -0.5q0.78125 -0.515625 0.78125 -1.578125q0 -0.84375 -0.5625 -1.390625q-0.5625 -0.546875 -1.46875 -0.546875q-0.890625 0 -1.484375 0.5625q-0.578125 0.5625 -0.75 1.671875l-1.53125 -0.265625q0.28125 -1.53125 1.265625 -2.375q1.0 -0.84375 2.46875 -0.84375q1.015625 0 1.859375 0.4375q0.859375 0.4375 1.3125 1.1875q0.453125 0.75 0.453125 1.59375q0 0.8125 -0.4375 1.46875q-0.421875 0.65625 -1.265625 1.046875q1.09375 0.25 1.703125 1.0625q0.609375 0.796875 0.609375 2.0q0 1.609375 -1.1875 2.75q-1.171875 1.1249695 -2.984375 1.1249695q-1.640625 0 -2.71875 -0.9687195q-1.078125 -0.96875 -1.21875 -2.53125z" fill-rule="nonzero"/><path fill="#000000" fill-opacity="0.0" d="m184.68533 505.7139l0 0c0 -21.247742 17.2247 -38.472443 38.472443 -38.472443l0 0c10.203522 0 19.989136 4.0533447 27.204117 11.268341c7.214981 7.214966 11.268326 17.00058 11.268326 27.204102l0 0c0 21.247772 -17.2247 38.472443 -38.472443 38.472443l0 0c-21.247742 0 -38.472443 -17.22467 -38.472443 -38.472443z" fill-rule="evenodd"/><path stroke="#000000" stroke-width="2.0" stroke-linejoin="round" stroke-linecap="butt" d="m184.68533 505.7139l0 0c0 -21.247742 17.2247 -38.472443 38.472443 -38.472443l0 0c10.203522 0 19.989136 4.0533447 27.204117 11.268341c7.214981 7.214966 11.268326 17.00058 11.268326 27.204102l0 0c0 21.247772 -17.2247 38.472443 -38.472443 38.472443l0 0c-21.247742 0 -38.472443 -17.22467 -38.472443 -38.472443z" fill-rule="evenodd"/><path fill="#000000" d="m209.49396 511.8539l0 -12.40625l1.640625 0l0 10.9375l6.109375 0l0 1.46875l-7.75 0zm9.793335 0l0 -12.40625l8.375 0l0 1.46875l-6.734375 0l0 3.84375l5.828125 0l0 1.453125l-5.828125 0l0 5.640625l-1.640625 0zm9.897217 -3.28125l1.515625 -0.203125q0.265625 1.296875 0.890625 1.875q0.640625 0.5625 1.53125 0.5625q1.078125 0 1.8125 -0.734375q0.75 -0.75 0.75 -1.84375q0 -1.046875 -0.6875 -1.734375q-0.6875 -0.6875 -1.734375 -0.6875q-0.4375 0 -1.078125 0.171875l0.171875 -1.328125q0.140625 0.015625 0.234375 0.015625q0.984375 0 1.75 -0.5q0.78125 -0.515625 0.78125 -1.578125q0 -0.84375 -0.5625 -1.390625q-0.5625 -0.546875 -1.46875 -0.546875q-0.890625 0 -1.484375 0.5625q-0.578125 0.5625 -0.75 1.671875l-1.53125 -0.265625q0.28125 -1.53125 1.265625 -2.375q1.0 -0.84375 2.46875 -0.84375q1.015625 0 1.859375 0.4375q0.859375 0.4375 1.3125 1.1875q0.453125 0.75 0.453125 1.59375q0 0.8125 -0.4375 1.46875q-0.421875 0.65625 -1.265625 1.046875q1.09375 0.25 1.703125 1.0625q0.609375 0.796875 0.609375 2.0q0 1.609375 -1.1875 2.75q-1.171875 1.1249695 -2.984375 1.1249695q-1.640625 0 -2.71875 -0.9687195q-1.078125 -0.96875 -1.21875 -2.53125z" fill-rule="nonzero"/><path fill="#000000" fill-opacity="0.0" d="m285.44153 505.7139l0 0c0 -21.247742 17.2247 -38.472443 38.472443 -38.472443l0 0c10.203522 0 19.989136 4.0533447 27.204132 11.268341c7.214966 7.214966 11.268311 17.00058 11.268311 27.204102l0 0c0 21.247772 -17.2247 38.472443 -38.472443 38.472443l0 0c-21.247742 0 -38.472443 -17.22467 -38.472443 -38.472443z" fill-rule="evenodd"/><path stroke="#000000" stroke-width="2.0" stroke-linejoin="round" stroke-linecap="butt" d="m285.44153 505.7139l0 0c0 -21.247742 17.2247 -38.472443 38.472443 -38.472443l0 0c10.203522 0 19.989136 4.0533447 27.204132 11.268341c7.214966 7.214966 11.268311 17.00058 11.268311 27.204102l0 0c0 21.247772 -17.2247 38.472443 -38.472443 38.472443l0 0c-21.247742 0 -38.472443 -17.22467 -38.472443 -38.472443z" fill-rule="evenodd"/><path fill="#000000" d="m309.9326 511.8539l0 -12.40625l8.375 0l0 1.46875l-6.734375 0l0 3.84375l5.828125 0l0 1.453125l-5.828125 0l0 5.640625l-1.640625 0zm10.584717 0l0 -12.40625l8.375 0l0 1.46875l-6.734375 0l0 3.84375l5.828125 0l0 1.453125l-5.828125 0l0 5.640625l-1.640625 0zm9.881592 -6.125q0 -2.1875 0.453125 -3.53125q0.453125 -1.34375 1.34375 -2.0625q0.890625 -0.734375 2.25 -0.734375q1.0 0 1.75 0.40625q0.75 0.390625 1.234375 1.15625q0.5 0.75 0.78125 1.84375q0.28125 1.078125 0.28125 2.921875q0 2.1875 -0.453125 3.53125q-0.453125 1.34375 -1.34375 2.078125q-0.890625 0.7343445 -2.25 0.7343445q-1.796875 0 -2.8125 -1.2968445q-1.234375 -1.546875 -1.234375 -5.046875zm1.5625 0q0 3.0625 0.71875 4.078125q0.71875 1.0 1.765625 1.0q1.046875 0 1.765625 -1.015625q0.71875 -1.015625 0.71875 -4.0625q0 -3.0625 -0.71875 -4.0625q-0.71875 -1.0 -1.78125 -1.0q-1.046875 0 -1.671875 0.875q-0.796875 1.140625 -0.796875 4.1875z" fill-rule="nonzero"/><path fill="#000000" fill-opacity="0.0" d="m386.19772 505.7139l0 0c0 -21.247742 17.2247 -38.472443 38.472443 -38.472443l0 0c10.203522 0 19.989136 4.0533447 27.204132 11.268341c7.214966 7.214966 11.268311 17.00058 11.268311 27.204102l0 0c0 21.247772 -17.2247 38.472443 -38.472443 38.472443l0 0c-21.247742 0 -38.472443 -17.22467 -38.472443 -38.472443z" fill-rule="evenodd"/><path stroke="#000000" stroke-width="2.0" stroke-linejoin="round" stroke-linecap="butt" d="m386.19772 505.7139l0 0c0 -21.247742 17.2247 -38.472443 38.472443 -38.472443l0 0c10.203522 0 19.989136 4.0533447 27.204132 11.268341c7.214966 7.214966 11.268311 17.00058 11.268311 27.204102l0 0c0 21.247772 -17.2247 38.472443 -38.472443 38.472443l0 0c-21.247742 0 -38.472443 -17.22467 -38.472443 -38.472443z" fill-rule="evenodd"/><path fill="#000000" d="m410.68878 511.8539l0 -12.40625l8.375 0l0 1.46875l-6.734375 0l0 3.84375l5.828125 0l0 1.453125l-5.828125 0l0 5.640625l-1.640625 0zm10.584717 0l0 -12.40625l8.375 0l0 1.46875l-6.734375 0l0 3.84375l5.828125 0l0 1.453125l-5.828125 0l0 5.640625l-1.640625 0zm9.897217 -3.28125l1.515625 -0.203125q0.265625 1.296875 0.890625 1.875q0.640625 0.5625 1.53125 0.5625q1.078125 0 1.8125 -0.734375q0.75 -0.75 0.75 -1.84375q0 -1.046875 -0.6875 -1.734375q-0.6875 -0.6875 -1.734375 -0.6875q-0.4375 0 -1.078125 0.171875l0.171875 -1.328125q0.140625 0.015625 0.234375 0.015625q0.984375 0 1.75 -0.5q0.78125 -0.515625 0.78125 -1.578125q0 -0.84375 -0.5625 -1.390625q-0.5625 -0.546875 -1.46875 -0.546875q-0.890625 0 -1.484375 0.5625q-0.578125 0.5625 -0.75 1.671875l-1.53125 -0.265625q0.28125 -1.53125 1.265625 -2.375q1.0 -0.84375 2.46875 -0.84375q1.015625 0 1.859375 0.4375q0.859375 0.4375 1.3125 1.1875q0.453125 0.75 0.453125 1.59375q0 0.8125 -0.4375 1.46875q-0.421875 0.65625 -1.265625 1.046875q1.09375 0.25 1.703125 1.0625q0.609375 0.796875 0.609375 2.0q0 1.609375 -1.1875 2.75q-1.171875 1.1249695 -2.984375 1.1249695q-1.640625 0 -2.71875 -0.9687195q-1.078125 -0.96875 -1.21875 -2.53125z" fill-rule="nonzero"/><path fill="#000000" fill-opacity="0.0" d="m3.2677166 215.73228l0 0c0 -21.247742 17.224697 -38.472443 38.472443 -38.472443l0 0c10.203526 0 19.98914 4.0533295 27.204124 11.268311c7.214981 7.2149963 11.268318 17.00061 11.268318 27.204132l0 0c0 21.247742 -17.2247 38.472443 -38.472443 38.472443l0 0c-21.247744 0 -38.472443 -17.2247 -38.472443 -38.472443z" fill-rule="evenodd"/><path stroke="#000000" stroke-width="2.0" stroke-linejoin="round" stroke-linecap="butt" d="m3.2677166 215.73228l0 0c0 -21.247742 17.224697 -38.472443 38.472443 -38.472443l0 0c10.203526 0 19.98914 4.0533295 27.204124 11.268311c7.214981 7.2149963 11.268318 17.00061 11.268318 27.204132l0 0c0 21.247742 -17.2247 38.472443 -38.472443 38.472443l0 0c-21.247744 0 -38.472443 -17.2247 -38.472443 -38.472443z" fill-rule="evenodd"/><path fill="#000000" d="m28.07634 221.87228l0 -12.40625l1.640625 0l0 10.9375l6.109375 0l0 1.46875l-7.75 0zm9.793335 0l0 -12.40625l8.375 0l0 1.46875l-6.734375 0l0 3.84375l5.828125 0l0 1.453125l-5.828125 0l0 5.640625l-1.640625 0zm14.756592 0l0 -2.96875l-5.375 0l0 -1.390625l5.65625 -8.046875l1.25 0l0 8.046875l1.671875 0l0 1.390625l-1.671875 0l0 2.96875l-1.53125 0zm0 -4.359375l0 -5.59375l-3.875 5.59375l3.875 0z" fill-rule="nonzero"/><path fill="#000000" fill-opacity="0.0" d="m3.2677166 316.4882l0 0c0 -21.247742 17.224697 -38.472443 38.472443 -38.472443l0 0c10.203526 0 19.98914 4.0533447 27.204124 11.268311c7.214981 7.2149963 11.268318 17.00061 11.268318 27.204132l0 0c0 21.247742 -17.2247 38.472443 -38.472443 38.472443l0 0c-21.247744 0 -38.472443 -17.2247 -38.472443 -38.472443z" fill-rule="evenodd"/><path stroke="#000000" stroke-width="2.0" stroke-linejoin="round" stroke-linecap="butt" d="m3.2677166 316.4882l0 0c0 -21.247742 17.224697 -38.472443 38.472443 -38.472443l0 0c10.203526 0 19.98914 4.0533447 27.204124 11.268311c7.214981 7.2149963 11.268318 17.00061 11.268318 27.204132l0 0c0 21.247742 -17.2247 38.472443 -38.472443 38.472443l0 0c-21.247744 0 -38.472443 -17.2247 -38.472443 -38.472443z" fill-rule="evenodd"/><path fill="#000000" d="m25.693275 322.62817l0 -12.40625l2.46875 0l2.9375 8.78125q0.40625 1.234375 0.59375 1.84375q0.21875 -0.6875 0.65625 -2.0l2.984375 -8.625l2.203125 0l0 12.40625l-1.578125 0l0 -10.375l-3.609375 10.375l-1.484375 0l-3.578125 -10.5625l0 10.5625l-1.59375 0zm14.5750885 0l0 -12.40625l8.375 0l0 1.46875l-6.734375 0l0 3.84375l5.828125 0l0 1.453125l-5.828125 0l0 5.640625l-1.640625 0zm14.756592 0l0 -2.96875l-5.375 0l0 -1.390625l5.65625 -8.046875l1.25 0l0 8.046875l1.671875 0l0 1.390625l-1.671875 0l0 2.96875l-1.53125 0zm0 -4.359375l0 -5.59375l-3.875 5.59375l3.875 0z" fill-rule="nonzero"/><path fill="#000000" fill-opacity="0.0" d="m3.2677166 417.24408l0 0c0 -21.247742 17.224697 -38.472412 38.472443 -38.472412l0 0c10.203526 0 19.98914 4.053314 27.204124 11.268311c7.214981 7.214966 11.268318 17.00058 11.268318 27.204102l0 0c0 21.247772 -17.2247 38.472443 -38.472443 38.472443l0 0c-21.247744 0 -38.472443 -17.22467 -38.472443 -38.472443z" fill-rule="evenodd"/><path stroke="#000000" stroke-width="2.0" stroke-linejoin="round" stroke-linecap="butt" d="m3.2677166 417.24408l0 0c0 -21.247742 17.224697 -38.472412 38.472443 -38.472412l0 0c10.203526 0 19.98914 4.053314 27.204124 11.268311c7.214981 7.214966 11.268318 17.00058 11.268318 27.204102l0 0c0 21.247772 -17.2247 38.472443 -38.472443 38.472443l0 0c-21.247744 0 -38.472443 -17.22467 -38.472443 -38.472443z" fill-rule="evenodd"/><path fill="#000000" d="m28.07634 423.3841l0 -12.40625l1.640625 0l0 10.9375l6.109375 0l0 1.46875l-7.75 0zm9.793335 0l0 -12.40625l8.375 0l0 1.46875l-6.734375 0l0 3.84375l5.828125 0l0 1.453125l-5.828125 0l0 5.640625l-1.640625 0zm9.881592 -6.125q0 -2.1875 0.453125 -3.53125q0.453125 -1.34375 1.34375 -2.0625q0.890625 -0.734375 2.25 -0.734375q1.0 0 1.75 0.40625q0.75 0.390625 1.234375 1.15625q0.5 0.75 0.78125 1.84375q0.28125 1.078125 0.28125 2.921875q0 2.1875 -0.453125 3.53125q-0.453125 1.34375 -1.34375 2.078125q-0.890625 0.734375 -2.25 0.734375q-1.796875 0 -2.8125 -1.296875q-1.234375 -1.546875 -1.234375 -5.046875zm1.5625 0q0 3.0625 0.71875 4.078125q0.71875 1.0 1.765625 1.0q1.046875 0 1.765625 -1.015625q0.71875 -1.015625 0.71875 -4.0625q0 -3.0625 -0.71875 -4.0625q-0.71875 -1.0 -1.78125 -1.0q-1.046875 0 -1.671875 0.875q-0.796875 1.140625 -0.796875 4.1875z" fill-rule="nonzero"/><path fill="#000000" fill-opacity="0.0" d="m3.2677166 114.97638l0 0c0 -21.247742 17.224697 -38.472443 38.472443 -38.472443l0 0c10.203526 0 19.98914 4.053337 27.204124 11.268318c7.214981 7.214981 11.268318 17.000595 11.268318 27.204124l0 0c0 21.247742 -17.2247 38.472443 -38.472443 38.472443l0 0c-21.247744 0 -38.472443 -17.2247 -38.472443 -38.472443z" fill-rule="evenodd"/><path stroke="#000000" stroke-width="2.0" stroke-linejoin="round" stroke-linecap="butt" d="m3.2677166 114.97638l0 0c0 -21.247742 17.224697 -38.472443 38.472443 -38.472443l0 0c10.203526 0 19.98914 4.053337 27.204124 11.268318c7.214981 7.214981 11.268318 17.000595 11.268318 27.204124l0 0c0 21.247742 -17.2247 38.472443 -38.472443 38.472443l0 0c-21.247744 0 -38.472443 -17.2247 -38.472443 -38.472443z" fill-rule="evenodd"/><path fill="#000000" d="m26.73172 121.11638l0 -12.40625l5.5 0q1.65625 0 2.515625 0.34375q0.875 0.328125 1.390625 1.171875q0.515625 0.84375 0.515625 1.875q0 1.3125 -0.859375 2.21875q-0.859375 0.90625 -2.640625 1.15625q0.65625 0.3125 1.0 0.609375q0.71875 0.671875 1.359375 1.65625l2.15625 3.375l-2.0625 0l-1.640625 -2.578125q-0.71875 -1.125 -1.1875 -1.703125q-0.46875 -0.59375 -0.84375 -0.828125q-0.359375 -0.25 -0.734375 -0.34375q-0.28125 -0.0625 -0.921875 -0.0625l-1.90625 0l0 5.515625l-1.640625 0zm1.640625 -6.921875l3.53125 0q1.125 0 1.75 -0.234375q0.640625 -0.234375 0.96875 -0.75q0.34375 -0.515625 0.34375 -1.109375q0 -0.890625 -0.640625 -1.453125q-0.640625 -0.5625 -2.03125 -0.5625l-3.921875 0l0 4.109375zm10.935699 6.921875l0 -12.40625l8.375 0l0 1.46875l-6.734375 0l0 3.84375l5.828125 0l0 1.453125l-5.828125 0l0 5.640625l-1.640625 0zm9.881592 -6.125q0 -2.1875 0.453125 -3.53125q0.453125 -1.34375 1.34375 -2.0625q0.890625 -0.734375 2.25 -0.734375q1.0 0 1.75 0.40625q0.75 0.390625 1.234375 1.15625q0.5 0.75 0.78125 1.84375q0.28125 1.078125 0.28125 2.921875q0 2.1875 -0.453125 3.53125q-0.453125 1.34375 -1.34375 2.078125q-0.890625 0.734375 -2.25 0.734375q-1.796875 0 -2.8125 -1.296875q-1.234375 -1.546875 -1.234375 -5.046875zm1.5625 0q0 3.0625 0.71875 4.078125q0.71875 1.0 1.765625 1.0q1.046875 0 1.765625 -1.015625q0.71875 -1.015625 0.71875 -4.0625q0 -3.0625 -0.71875 -4.0625q-0.71875 -1.0 -1.78125 -1.0q-1.046875 0 -1.671875 0.875q-0.796875 1.140625 -0.796875 4.1875z" fill-rule="nonzero"/><path fill="#000000" fill-opacity="0.0" d="m466.85828 223.54068l0 0c0 -21.247742 17.2247 -38.472443 38.472443 -38.472443l0 0c10.203522 0 19.989105 4.0533447 27.204132 11.268326c7.214966 7.214981 11.268311 17.000595 11.268311 27.204117l0 0c0 21.247742 -17.224731 38.472443 -38.472443 38.472443l0 0c-21.247742 0 -38.472443 -17.2247 -38.472443 -38.472443z" fill-rule="evenodd"/><path stroke="#000000" stroke-width="2.0" stroke-linejoin="round" stroke-linecap="butt" d="m466.85828 223.54068l0 0c0 -21.247742 17.2247 -38.472443 38.472443 -38.472443l0 0c10.203522 0 19.989105 4.0533447 27.204132 11.268326c7.214966 7.214981 11.268311 17.000595 11.268311 27.204117l0 0c0 21.247742 -17.224731 38.472443 -38.472443 38.472443l0 0c-21.247742 0 -38.472443 -17.2247 -38.472443 -38.472443z" fill-rule="evenodd"/><path fill="#000000" d="m491.6669 229.68068l0 -12.40625l1.640625 0l0 10.9375l6.109375 0l0 1.46875l-7.75 0zm9.793335 0l0 -12.40625l8.375 0l0 1.46875l-6.734375 0l0 3.84375l5.828125 0l0 1.453125l-5.828125 0l0 5.640625l-1.640625 0zm9.881592 -3.25l1.5937195 -0.140625q0.1875 1.171875 0.828125 1.765625q0.65625 0.578125 1.5625 0.578125q1.09375 0 1.859375 -0.828125q0.765625 -0.828125 0.765625 -2.1875q0 -1.3125 -0.734375 -2.0625q-0.734375 -0.75 -1.921875 -0.75q-0.734375 0 -1.328125 0.34375q-0.578125 0.328125 -0.921875 0.859375l-1.4374695 -0.1875l1.2030945 -6.375l6.171875 0l0 1.453125l-4.953125 0l-0.671875 3.328125q1.125 -0.765625 2.34375 -0.765625q1.625 0 2.734375 1.125q1.125 1.125 1.125 2.890625q0 1.6875 -0.96875 2.90625q-1.203125 1.515625 -3.265625 1.515625q-1.6875 0 -2.765625 -0.953125q-1.0624695 -0.953125 -1.2187195 -2.515625z" fill-rule="nonzero"/><path fill="#000000" fill-opacity="0.0" d="m466.85828 324.2966l0 0c0 -21.247742 17.2247 -38.472443 38.472443 -38.472443l0 0c10.203522 0 19.989105 4.053314 27.204132 11.268311c7.214966 7.214966 11.268311 17.00058 11.268311 27.204132l0 0c0 21.247742 -17.224731 38.472443 -38.472443 38.472443l0 0c-21.247742 0 -38.472443 -17.2247 -38.472443 -38.472443z" fill-rule="evenodd"/><path stroke="#000000" stroke-width="2.0" stroke-linejoin="round" stroke-linecap="butt" d="m466.85828 324.2966l0 0c0 -21.247742 17.2247 -38.472443 38.472443 -38.472443l0 0c10.203522 0 19.989105 4.053314 27.204132 11.268311c7.214966 7.214966 11.268311 17.00058 11.268311 27.204132l0 0c0 21.247742 -17.224731 38.472443 -38.472443 38.472443l0 0c-21.247742 0 -38.472443 -17.2247 -38.472443 -38.472443z" fill-rule="evenodd"/><path fill="#000000" d="m489.2838 330.43658l0 -12.40625l2.46875 0l2.9375 8.78125q0.40625 1.234375 0.59375 1.84375q0.21875 -0.6875 0.65625 -2.0l2.984375 -8.625l2.203125 0l0 12.40625l-1.578125 0l0 -10.375l-3.609375 10.375l-1.484375 0l-3.578125 -10.5625l0 10.5625l-1.59375 0zm14.575104 0l0 -12.40625l8.3749695 0l0 1.46875l-6.7343445 0l0 3.84375l5.828125 0l0 1.453125l-5.828125 0l0 5.640625l-1.640625 0zm9.881561 -6.125q0 -2.1875 0.453125 -3.53125q0.453125 -1.34375 1.34375 -2.0625q0.890625 -0.734375 2.25 -0.734375q1.0 0 1.75 0.40625q0.75 0.390625 1.234375 1.15625q0.5 0.75 0.78125 1.84375q0.28125 1.078125 0.28125 2.921875q0 2.1875 -0.453125 3.53125q-0.453125 1.34375 -1.34375 2.078125q-0.890625 0.734375 -2.25 0.734375q-1.796875 0 -2.8125 -1.296875q-1.234375 -1.546875 -1.234375 -5.046875zm1.5625 0q0 3.0625 0.71875 4.078125q0.71875 1.0 1.765625 1.0q1.046875 0 1.765625 -1.015625q0.71875 -1.015625 0.71875 -4.0625q0 -3.0625 -0.71875 -4.0625q-0.71875 -1.0 -1.78125 -1.0q-1.046875 0 -1.671875 0.875q-0.796875 1.140625 -0.796875 4.1875z" fill-rule="nonzero"/><path fill="#000000" fill-opacity="0.0" d="m466.85828 425.0525l0 0c0 -21.247742 17.2247 -38.472443 38.472443 -38.472443l0 0c10.203522 0 19.989105 4.0533447 27.204132 11.268311c7.214966 7.2149963 11.268311 17.00061 11.268311 27.204132l0 0c0 21.247742 -17.224731 38.472443 -38.472443 38.472443l0 0c-21.247742 0 -38.472443 -17.2247 -38.472443 -38.472443z" fill-rule="evenodd"/><path stroke="#000000" stroke-width="2.0" stroke-linejoin="round" stroke-linecap="butt" d="m466.85828 425.0525l0 0c0 -21.247742 17.2247 -38.472443 38.472443 -38.472443l0 0c10.203522 0 19.989105 4.0533447 27.204132 11.268311c7.214966 7.2149963 11.268311 17.00061 11.268311 27.204132l0 0c0 21.247742 -17.224731 38.472443 -38.472443 38.472443l0 0c-21.247742 0 -38.472443 -17.2247 -38.472443 -38.472443z" fill-rule="evenodd"/><path fill="#000000" d="m491.34933 431.1925l0 -12.40625l8.375 0l0 1.46875l-6.734375 0l0 3.84375l5.828125 0l0 1.453125l-5.828125 0l0 5.640625l-1.640625 0zm10.584717 0l0 -12.40625l8.375 0l0 1.46875l-6.734375 0l0 3.84375l5.828125 0l0 1.453125l-5.828125 0l0 5.640625l-1.640625 0zm14.756561 0l0 -2.96875l-5.3749695 0l0 -1.390625l5.6562195 -8.046875l1.25 0l0 8.046875l1.671875 0l0 1.390625l-1.671875 0l0 2.96875l-1.53125 0zm0 -4.359375l0 -5.59375l-3.875 5.59375l3.875 0z" fill-rule="nonzero"/><path fill="#000000" fill-opacity="0.0" d="m466.85828 122.784775l0 0c0 -21.247742 17.2247 -38.472443 38.472443 -38.472443l0 0c10.203522 0 19.989105 4.053337 27.204132 11.268318c7.214966 7.2149887 11.268311 17.000603 11.268311 27.204124l0 0c0 21.247742 -17.224731 38.472443 -38.472443 38.472443l0 0c-21.247742 0 -38.472443 -17.2247 -38.472443 -38.472443z" fill-rule="evenodd"/><path stroke="#000000" stroke-width="2.0" stroke-linejoin="round" stroke-linecap="butt" d="m466.85828 122.784775l0 0c0 -21.247742 17.2247 -38.472443 38.472443 -38.472443l0 0c10.203522 0 19.989105 4.053337 27.204132 11.268318c7.214966 7.2149887 11.268311 17.000603 11.268311 27.204124l0 0c0 21.247742 -17.224731 38.472443 -38.472443 38.472443l0 0c-21.247742 0 -38.472443 -17.2247 -38.472443 -38.472443z" fill-rule="evenodd"/><path fill="#000000" d="m493.4629 128.92477l0 -10.9375l-4.09375 0l0 -1.46875l9.828125 0l0 1.46875l-4.09375 0l0 10.9375l-1.640625 0zm7.475342 0l0 -12.40625l1.640625 0l0 5.09375l6.4375 0l0 -5.09375l1.65625 0l0 12.40625l-1.65625 0l0 -5.84375l-6.4375 0l0 5.84375l-1.640625 0zm19.84198 -1.46875l0 1.46875l-8.1875 0q-0.03125 -0.546875 0.171875 -1.0625q0.3125 -0.828125 1.0 -1.640625q0.6875 -0.8125 2.0 -1.875q2.015625 -1.671875 2.71875 -2.640625q0.71875 -0.96875 0.71875 -1.828125q0 -0.90625 -0.65625 -1.515625q-0.640625 -0.625 -1.671875 -0.625q-1.109375 0 -1.765625 0.65625q-0.65625 0.65625 -0.671875 1.828125l-1.5625 -0.15625q0.15625 -1.765625 1.203125 -2.671875q1.0625 -0.921875 2.828125 -0.921875q1.78125 0 2.8125 1.0q1.046875 0.984375 1.046875 2.4375q0 0.75 -0.3125 1.46875q-0.296875 0.71875 -1.0 1.515625q-0.703125 0.796875 -2.34375 2.1875q-1.375 1.140625 -1.765625 1.5625q-0.390625 0.40625 -0.640625 0.8125l6.078125 0z" fill-rule="nonzero"/><path fill="#000000" fill-opacity="0.0" d="m3.2677166 560.6168l540.53546 0l0 42.015747l-540.53546 0z" fill-rule="evenodd"/><path fill="#000000" d="m144.80666 574.1774l5.34375 0q1.59375 0 2.359375 0.140625q0.78125 0.125 1.390625 0.546875q0.625 0.421875 1.03125 1.125q0.40625 0.6875 0.40625 1.546875q0 0.9375 -0.5 1.734375q-0.5 0.78125 -1.375 1.171875q1.21875 0.359375 1.875 1.21875q0.65625 0.84375 0.65625 2.0q0 0.921875 -0.421875 1.78125q-0.421875 0.859375 -1.15625 1.375q-0.734375 0.515625 -1.796875 0.625q-0.6875 0.078125 -3.265625 0.09375l-4.546875 0l0 -13.359375zm2.703125 2.234375l0 3.078125l1.765625 0q1.578125 0 1.953125 -0.046875q0.703125 -0.078125 1.09375 -0.46875q0.40625 -0.40625 0.40625 -1.046875q0 -0.625 -0.34375 -1.0q-0.34375 -0.390625 -1.015625 -0.484375q-0.40625 -0.03125 -2.3125 -0.03125l-1.546875 0zm0 5.296875l0 3.578125l2.5 0q1.453125 0 1.84375 -0.078125q0.609375 -0.109375 0.984375 -0.53125q0.375 -0.421875 0.375 -1.140625q0 -0.59375 -0.296875 -1.015625q-0.28125 -0.421875 -0.84375 -0.609375q-0.546875 -0.203125 -2.390625 -0.203125l-2.171875 0zm12.660446 -0.890625l-2.328125 -0.421875q0.40625 -1.40625 1.359375 -2.078125q0.953125 -0.671875 2.84375 -0.671875q1.703125 0 2.546875 0.40625q0.84375 0.40625 1.171875 1.03125q0.34375 0.625 0.34375 2.28125l-0.015625 3.0q0 1.265625 0.109375 1.875q0.125 0.609375 0.46875 1.296875l-2.53125 0q-0.109375 -0.25 -0.25 -0.75q-0.0625 -0.234375 -0.09375 -0.3125q-0.65625 0.640625 -1.40625 0.96875q-0.734375 0.3125 -1.59375 0.3125q-1.484375 0 -2.34375 -0.8125q-0.859375 -0.8125 -0.859375 -2.046875q0 -0.828125 0.390625 -1.46875q0.390625 -0.640625 1.09375 -0.96875q0.703125 -0.34375 2.03125 -0.609375q1.796875 -0.328125 2.484375 -0.625l0 -0.25q0 -0.75 -0.359375 -1.0625q-0.359375 -0.3125 -1.375 -0.3125q-0.6875 0 -1.078125 0.28125q-0.375 0.265625 -0.609375 0.9375zm3.421875 2.078125q-0.484375 0.15625 -1.5625 0.390625q-1.0625 0.21875 -1.390625 0.4375q-0.5 0.359375 -0.5 0.90625q0 0.53125 0.40625 0.9375q0.40625 0.390625 1.015625 0.390625q0.703125 0 1.328125 -0.46875q0.46875 -0.34375 0.609375 -0.84375q0.09375 -0.328125 0.09375 -1.25l0 -0.5zm13.485092 -2.171875l-2.53125 0.453125q-0.125 -0.75 -0.578125 -1.125q-0.453125 -0.390625 -1.171875 -0.390625q-0.953125 0 -1.53125 0.65625q-0.5625 0.65625 -0.5625 2.203125q0 1.734375 0.578125 2.4375q0.578125 0.703125 1.546875 0.703125q0.734375 0 1.203125 -0.40625q0.46875 -0.421875 0.65625 -1.421875l2.515625 0.421875q-0.390625 1.734375 -1.515625 2.625q-1.109375 0.875 -2.96875 0.875q-2.125 0 -3.390625 -1.328125q-1.25 -1.34375 -1.25 -3.71875q0 -2.390625 1.265625 -3.71875q1.265625 -1.34375 3.421875 -1.34375q1.765625 0 2.796875 0.765625q1.046875 0.75 1.515625 2.3125zm1.8444672 6.8125l0 -13.359375l2.5625 0l0 7.09375l3.0 -3.40625l3.140625 0l-3.296875 3.53125l3.53125 6.140625l-2.75 0l-2.4375 -4.34375l-1.1875 1.25l0 3.09375l-2.5625 0zm15.059021 -4.96875q0 -1.28125 0.625 -2.46875q0.625 -1.203125 1.78125 -1.828125q1.15625 -0.625 2.578125 -0.625q2.1875 0 3.59375 1.421875q1.40625 1.421875 1.40625 3.609375q0 2.1875 -1.421875 3.640625q-1.421875 1.4375 -3.5625 1.4375q-1.328125 0 -2.546875 -0.59375q-1.203125 -0.609375 -1.828125 -1.765625q-0.625 -1.171875 -0.625 -2.828125zm2.625 0.125q0 1.453125 0.671875 2.21875q0.6875 0.75 1.6875 0.75q1.0 0 1.671875 -0.75q0.6875 -0.765625 0.6875 -2.234375q0 -1.421875 -0.6875 -2.1875q-0.671875 -0.765625 -1.671875 -0.765625q-1.0 0 -1.6875 0.765625q-0.671875 0.765625 -0.671875 2.203125zm8.239731 -4.828125l1.421875 0l0 -0.734375q0 -1.21875 0.25 -1.8125q0.265625 -0.609375 0.953125 -0.984375q0.703125 -0.375 1.78125 -0.375q1.09375 0 2.140625 0.328125l-0.359375 1.78125q-0.609375 -0.140625 -1.171875 -0.140625q-0.546875 0 -0.796875 0.265625q-0.234375 0.25 -0.234375 0.984375l0 0.6875l1.90625 0l0 2.015625l-1.90625 0l0 7.65625l-2.5625 0l0 -7.65625l-1.421875 0l0 -2.015625zm16.95848 0l0 2.03125l-1.75 0l0 3.90625q0 1.1875 0.046875 1.390625q0.046875 0.1875 0.21875 0.3125q0.1875 0.125 0.4375 0.125q0.359375 0 1.03125 -0.25l0.21875 2.0q-0.890625 0.375 -2.015625 0.375q-0.703125 0 -1.265625 -0.234375q-0.546875 -0.234375 -0.8125 -0.59375q-0.25 -0.375 -0.34375 -1.0q-0.09375 -0.453125 -0.09375 -1.8125l0 -4.21875l-1.171875 0l0 -2.03125l1.171875 0l0 -1.921875l2.578125 -1.5l0 3.421875l1.75 0zm4.322052 -3.6875l0 4.921875q1.234375 -1.453125 2.953125 -1.453125q0.890625 0 1.59375 0.328125q0.71875 0.328125 1.078125 0.84375q0.359375 0.5 0.484375 1.125q0.140625 0.609375 0.140625 1.921875l0 5.671875l-2.5625 0l0 -5.109375q0 -1.515625 -0.15625 -1.921875q-0.140625 -0.421875 -0.515625 -0.65625q-0.359375 -0.25 -0.90625 -0.25q-0.640625 0 -1.140625 0.3125q-0.5 0.3125 -0.734375 0.9375q-0.234375 0.625 -0.234375 1.84375l0 4.84375l-2.5625 0l0 -13.359375l2.5625 0zm14.442856 10.28125l2.546875 0.421875q-0.484375 1.40625 -1.546875 2.140625q-1.0625 0.734375 -2.65625 0.734375q-2.515625 0 -3.734375 -1.65625q-0.953125 -1.3125 -0.953125 -3.328125q0 -2.40625 1.25 -3.765625q1.265625 -1.359375 3.1875 -1.359375q2.15625 0 3.40625 1.421875q1.25 1.421875 1.1875 4.375l-6.40625 0q0.03125 1.140625 0.609375 1.78125q0.59375 0.625 1.484375 0.625q0.59375 0 1.0 -0.328125q0.421875 -0.328125 0.625 -1.0625zm0.15625 -2.59375q-0.03125 -1.109375 -0.578125 -1.6875q-0.546875 -0.578125 -1.328125 -0.578125q-0.84375 0 -1.390625 0.609375q-0.546875 0.609375 -0.53125 1.65625l3.828125 0zm9.809021 5.671875l0 -13.359375l2.5625 0l0 13.359375l-2.5625 0zm10.777054 -3.078125l2.546875 0.421875q-0.484375 1.40625 -1.546875 2.140625q-1.0625 0.734375 -2.65625 0.734375q-2.515625 0 -3.734375 -1.65625q-0.953125 -1.3125 -0.953125 -3.328125q0 -2.40625 1.25 -3.765625q1.265625 -1.359375 3.1875 -1.359375q2.15625 0 3.40625 1.421875q1.25 1.421875 1.1875 4.375l-6.40625 0q0.03125 1.140625 0.609375 1.78125q0.59375 0.625 1.484375 0.625q0.59375 0 1.0 -0.328125q0.421875 -0.328125 0.625 -1.0625zm0.15625 -2.59375q-0.03125 -1.109375 -0.578125 -1.6875q-0.546875 -0.578125 -1.328125 -0.578125q-0.84375 0 -1.390625 0.609375q-0.546875 0.609375 -0.53125 1.65625l3.828125 0zm3.5007324 -4.0l1.421875 0l0 -0.734375q0 -1.21875 0.25 -1.8125q0.265625 -0.609375 0.953125 -0.984375q0.703125 -0.375 1.78125 -0.375q1.09375 0 2.140625 0.328125l-0.359375 1.78125q-0.609375 -0.140625 -1.171875 -0.140625q-0.546875 0 -0.796875 0.265625q-0.234375 0.25 -0.234375 0.984375l0 0.6875l1.90625 0l0 2.015625l-1.90625 0l0 7.65625l-2.5625 0l0 -7.65625l-1.421875 0l0 -2.015625zm11.775177 0l0 2.03125l-1.75 0l0 3.90625q0 1.1875 0.046875 1.390625q0.046875 0.1875 0.21875 0.3125q0.1875 0.125 0.4375 0.125q0.359375 0 1.03125 -0.25l0.21875 2.0q-0.890625 0.375 -2.015625 0.375q-0.703125 0 -1.265625 -0.234375q-0.546875 -0.234375 -0.8125 -0.59375q-0.25 -0.375 -0.34375 -1.0q-0.09375 -0.453125 -0.09375 -1.8125l0 -4.21875l-1.171875 0l0 -2.03125l1.171875 0l0 -1.921875l2.578125 -1.5l0 3.421875l1.75 0zm6.2865906 5.328125l2.625 -0.25q0.234375 1.3125 0.953125 1.9375q0.734375 0.609375 1.96875 0.609375q1.296875 0 1.953125 -0.546875q0.671875 -0.546875 0.671875 -1.28125q0 -0.484375 -0.28125 -0.8125q-0.28125 -0.328125 -0.96875 -0.578125q-0.484375 -0.15625 -2.171875 -0.578125q-2.15625 -0.546875 -3.03125 -1.328125q-1.234375 -1.09375 -1.234375 -2.6875q0 -1.015625 0.578125 -1.90625q0.578125 -0.890625 1.65625 -1.34375q1.09375 -0.46875 2.640625 -0.46875q2.515625 0 3.78125 1.109375q1.28125 1.09375 1.34375 2.9375l-2.703125 0.109375q-0.171875 -1.03125 -0.75 -1.46875q-0.5625 -0.453125 -1.703125 -0.453125q-1.171875 0 -1.84375 0.46875q-0.421875 0.3125 -0.421875 0.84375q0 0.46875 0.40625 0.796875q0.5 0.4375 2.46875 0.90625q1.96875 0.453125 2.90625 0.953125q0.953125 0.5 1.484375 1.359375q0.53125 0.859375 0.53125 2.125q0 1.15625 -0.640625 2.15625q-0.640625 1.0 -1.8125 1.484375q-1.15625 0.484375 -2.890625 0.484375q-2.53125 0 -3.890625 -1.171875q-1.359375 -1.171875 -1.625 -3.40625zm15.6623535 -9.015625l0 4.921875q1.234375 -1.453125 2.953125 -1.453125q0.890625 0 1.59375 0.328125q0.71875 0.328125 1.078125 0.84375q0.359375 0.5 0.484375 1.125q0.140625 0.609375 0.140625 1.921875l0 5.671875l-2.5625 0l0 -5.109375q0 -1.515625 -0.15625 -1.921875q-0.140625 -0.421875 -0.515625 -0.65625q-0.359375 -0.25 -0.90625 -0.25q-0.640625 0 -1.140625 0.3125q-0.5 0.3125 -0.734375 0.9375q-0.234375 0.625 -0.234375 1.84375l0 4.84375l-2.5625 0l0 -13.359375l2.5625 0zm10.755341 6.640625l-2.328125 -0.421875q0.40625 -1.40625 1.359375 -2.078125q0.953125 -0.671875 2.84375 -0.671875q1.703125 0 2.546875 0.40625q0.84375 0.40625 1.171875 1.03125q0.34375 0.625 0.34375 2.28125l-0.015625 3.0q0 1.265625 0.109375 1.875q0.125 0.609375 0.46875 1.296875l-2.53125 0q-0.109375 -0.25 -0.25 -0.75q-0.0625 -0.234375 -0.09375 -0.3125q-0.65625 0.640625 -1.40625 0.96875q-0.734375 0.3125 -1.59375 0.3125q-1.484375 0 -2.34375 -0.8125q-0.859375 -0.8125 -0.859375 -2.046875q0 -0.828125 0.390625 -1.46875q0.390625 -0.640625 1.09375 -0.96875q0.703125 -0.34375 2.03125 -0.609375q1.796875 -0.328125 2.484375 -0.625l0 -0.25q0 -0.75 -0.359375 -1.0625q-0.359375 -0.3125 -1.375 -0.3125q-0.6875 0 -1.078125 0.28125q-0.375 0.265625 -0.609375 0.9375zm3.421875 2.078125q-0.484375 0.15625 -1.5625 0.390625q-1.0625 0.21875 -1.390625 0.4375q-0.5 0.359375 -0.5 0.90625q0 0.53125 0.40625 0.9375q0.40625 0.390625 1.015625 0.390625q0.703125 0 1.328125 -0.46875q0.46875 -0.34375 0.609375 -0.84375q0.09375 -0.328125 0.09375 -1.25l0 -0.5zm13.922577 4.640625l-2.390625 0l0 -1.421875q-0.59375 0.828125 -1.40625 1.234375q-0.796875 0.40625 -1.609375 0.40625q-1.671875 0 -2.859375 -1.34375q-1.1875 -1.34375 -1.1875 -3.75q0 -2.453125 1.15625 -3.734375q1.15625 -1.28125 2.921875 -1.28125q1.625 0 2.8125 1.34375l0 -4.8125l2.5625 0l0 13.359375zm-6.84375 -5.046875q0 1.546875 0.4375 2.234375q0.609375 1.015625 1.71875 1.015625q0.890625 0 1.5 -0.75q0.625 -0.765625 0.625 -2.25q0 -1.671875 -0.609375 -2.40625q-0.59375 -0.734375 -1.53125 -0.734375q-0.90625 0 -1.53125 0.734375q-0.609375 0.71875 -0.609375 2.15625zm8.770996 0.078125q0 -1.28125 0.625 -2.46875q0.625 -1.203125 1.78125 -1.828125q1.15625 -0.625 2.578125 -0.625q2.1875 0 3.59375 1.421875q1.40625 1.421875 1.40625 3.609375q0 2.1875 -1.421875 3.640625q-1.421875 1.4375 -3.5625 1.4375q-1.328125 0 -2.546875 -0.59375q-1.203125 -0.609375 -1.828125 -1.765625q-0.625 -1.171875 -0.625 -2.828125zm2.625 0.125q0 1.453125 0.671875 2.21875q0.6875 0.75 1.6875 0.75q1.0 0 1.671875 -0.75q0.6875 -0.765625 0.6875 -2.234375q0 -1.421875 -0.6875 -2.1875q-0.671875 -0.765625 -1.671875 -0.765625q-1.0 0 -1.6875 0.765625q-0.671875 0.765625 -0.671875 2.203125zm11.161621 4.84375l-3.0625 -9.671875l2.484375 0l1.8125 6.34375l1.671875 -6.34375l2.46875 0l1.609375 6.34375l1.859375 -6.34375l2.515625 0l-3.109375 9.671875l-2.453125 0l-1.671875 -6.21875l-1.640625 6.21875l-2.484375 0zm20.444702 -13.359375l0 4.921875q1.234375 -1.453125 2.953125 -1.453125q0.890625 0 1.59375 0.328125q0.71875 0.328125 1.078125 0.84375q0.359375 0.5 0.484375 1.125q0.140625 0.609375 0.140625 1.921875l0 5.671875l-2.5625 0l0 -5.109375q0 -1.515625 -0.15625 -1.921875q-0.140625 -0.421875 -0.515625 -0.65625q-0.359375 -0.25 -0.90625 -0.25q-0.640625 0 -1.140625 0.3125q-0.5 0.3125 -0.734375 0.9375q-0.234375 0.625 -0.234375 1.84375l0 4.84375l-2.5625 0l0 -13.359375l2.5625 0zm10.755371 6.640625l-2.328125 -0.421875q0.40625 -1.40625 1.359375 -2.078125q0.953125 -0.671875 2.84375 -0.671875q1.703125 0 2.546875 0.40625q0.84375 0.40625 1.171875 1.03125q0.34375 0.625 0.34375 2.28125l-0.015625 3.0q0 1.265625 0.109375 1.875q0.125 0.609375 0.46875 1.296875l-2.53125 0q-0.109375 -0.25 -0.25 -0.75q-0.0625 -0.234375 -0.09375 -0.3125q-0.65625 0.640625 -1.40625 0.96875q-0.734375 0.3125 -1.59375 0.3125q-1.484375 0 -2.34375 -0.8125q-0.859375 -0.8125 -0.859375 -2.046875q0 -0.828125 0.390625 -1.46875q0.390625 -0.640625 1.09375 -0.96875q0.703125 -0.34375 2.03125 -0.609375q1.796875 -0.328125 2.484375 -0.625l0 -0.25q0 -0.75 -0.359375 -1.0625q-0.359375 -0.3125 -1.375 -0.3125q-0.6875 0 -1.078125 0.28125q-0.375 0.265625 -0.609375 0.9375zm3.421875 2.078125q-0.484375 0.15625 -1.5625 0.390625q-1.0625 0.21875 -1.390625 0.4375q-0.5 0.359375 -0.5 0.90625q0 0.53125 0.40625 0.9375q0.40625 0.390625 1.015625 0.390625q0.703125 0 1.328125 -0.46875q0.46875 -0.34375 0.609375 -0.84375q0.09375 -0.328125 0.09375 -1.25l0 -0.5zm13.844482 4.640625l-2.5625 0l0 -4.9375q0 -1.5625 -0.171875 -2.015625q-0.15625 -0.46875 -0.53125 -0.71875q-0.359375 -0.265625 -0.875 -0.265625q-0.671875 0 -1.203125 0.375q-0.53125 0.359375 -0.734375 0.96875q-0.1875 0.59375 -0.1875 2.21875l0 4.375l-2.546875 0l0 -9.671875l2.375 0l0 1.421875q1.265625 -1.640625 3.1875 -1.640625q0.84375 0 1.546875 0.3125q0.703125 0.296875 1.0625 0.78125q0.359375 0.46875 0.5 1.078125q0.140625 0.59375 0.140625 1.703125l0 6.015625zm11.474091 0l-2.390625 0l0 -1.421875q-0.59375 0.828125 -1.40625 1.234375q-0.796875 0.40625 -1.609375 0.40625q-1.671875 0 -2.859375 -1.34375q-1.1875 -1.34375 -1.1875 -3.75q0 -2.453125 1.15625 -3.734375q1.15625 -1.28125 2.921875 -1.28125q1.625 0 2.8125 1.34375l0 -4.8125l2.5625 0l0 13.359375zm-6.84375 -5.046875q0 1.546875 0.4375 2.234375q0.609375 1.015625 1.71875 1.015625q0.890625 0 1.5 -0.75q0.625 -0.765625 0.625 -2.25q0 -1.671875 -0.609375 -2.40625q-0.59375 -0.734375 -1.53125 -0.734375q-0.90625 0 -1.53125 0.734375q-0.609375 0.71875 -0.609375 2.15625z" fill-rule="nonzero"/></g></svg>